<?xml version="1.0" encoding="utf-8"?>
<!-- Generator: Adobe Illustrator 28.0.0, SVG Export Plug-In . SVG Version: 6.00 Build 0)  -->
<svg version="1.1" id="Layer_1" xmlns="http://www.w3.org/2000/svg" xmlns:xlink="http://www.w3.org/1999/xlink" x="0px" y="0px"
	 viewBox="0 0 710.6 127.1" style="enable-background:new 0 0 710.6 127.1;" xml:space="preserve">
<path d="M63.6,0C28.5,0,0,28.5,0,63.6s28.5,63.6,63.6,63.6s63.6-28.5,63.6-63.6C127.1,28.5,98.7,0,63.6,0z M90.4,25.3l19.9,34.4
	H70.5L90.4,25.3z M17.8,66.7c0-1.5,1.3-2.7,2.9-2.7l78.9-0.4l-58.4,22L19,69.1C18.2,68.6,17.8,67.7,17.8,66.7z M48.4,110.2
	L32.1,98.2c-1.2-0.9-1.5-2.6-0.7-3.9c0.3-0.5,0.8-0.8,1.4-1l78.8-29.8L48.4,110.2z"/>
<g>
	<path d="M158.2,82.8c-0.3,0-0.6-0.1-0.8-0.3s-0.3-0.5-0.3-0.8V57.5c0-0.3,0.1-0.6,0.3-0.8c0.2-0.2,0.5-0.3,0.8-0.3h2.4
		c0.3,0,0.6,0.1,0.8,0.3s0.3,0.5,0.3,0.8v2.2c0.9-1.2,2-2.1,3.3-2.8s3.1-1.1,5.2-1.1c2.2,0,4.1,0.5,5.6,1.5c1.6,1,2.7,2.3,3.5,4
		s1.2,3.7,1.2,6v14.4c0,0.3-0.1,0.6-0.3,0.8c-0.2,0.2-0.5,0.3-0.8,0.3H177c-0.3,0-0.6-0.1-0.8-0.3s-0.3-0.5-0.3-0.8V67.5
		c0-2.4-0.6-4.2-1.7-5.6c-1.2-1.3-2.9-2-5.1-2c-2.1,0-3.8,0.7-5.1,2s-1.9,3.2-1.9,5.6v14.1c0,0.3-0.1,0.6-0.3,0.8
		c-0.2,0.2-0.5,0.3-0.8,0.3L158.2,82.8L158.2,82.8z"/>
	<path d="M198.6,83.3c-3.5,0-6.3-1.1-8.4-3.2c-2.1-2.2-3.2-5.1-3.4-8.9c0-0.4-0.1-1-0.1-1.7s0-1.3,0.1-1.7c0.1-2.4,0.7-4.5,1.7-6.4
		c1-1.8,2.3-3.2,4.1-4.2s3.7-1.5,6.1-1.5c2.6,0,4.8,0.5,6.5,1.6s3.1,2.6,4,4.7s1.4,4.4,1.4,7V70c0,0.4-0.1,0.7-0.3,0.9
		c-0.2,0.2-0.5,0.3-0.8,0.3h-17.7c0,0,0,0.1,0,0.2c0,0.1,0,0.2,0,0.2c0.1,1.4,0.4,2.7,0.9,3.9c0.5,1.2,1.3,2.2,2.4,2.9
		s2.2,1.1,3.7,1.1c1.2,0,2.2-0.2,3.1-0.6c0.8-0.4,1.5-0.8,2-1.2c0.5-0.5,0.9-0.8,1-1.1c0.3-0.4,0.5-0.7,0.7-0.8
		c0.2-0.1,0.4-0.1,0.8-0.1h2.4c0.3,0,0.6,0.1,0.8,0.3s0.3,0.4,0.3,0.8c0,0.5-0.3,1.1-0.8,1.9c-0.5,0.7-1.2,1.5-2.2,2.2
		c-0.9,0.7-2.1,1.3-3.5,1.8C201.9,83.1,200.3,83.3,198.6,83.3z M191.6,67.6h14v-0.2c0-1.5-0.3-2.9-0.8-4.1s-1.4-2.1-2.4-2.8
		c-1.1-0.7-2.3-1.1-3.8-1.1c-1.5,0-2.7,0.3-3.8,1.1c-1,0.7-1.8,1.6-2.4,2.8s-0.8,2.6-0.8,4.1L191.6,67.6L191.6,67.6z"/>
	<path d="M214.8,82.8c-0.3,0-0.5-0.1-0.7-0.3c-0.2-0.2-0.3-0.5-0.3-0.8c0-0.1,0-0.2,0.1-0.4c0.1-0.2,0.1-0.3,0.3-0.5l8.9-11.6
		l-8.3-11c-0.1-0.2-0.2-0.4-0.3-0.5c-0.1-0.1-0.1-0.3-0.1-0.4c0-0.3,0.1-0.6,0.3-0.8c0.2-0.2,0.5-0.3,0.8-0.3h2.6
		c0.4,0,0.7,0.1,0.8,0.3c0.2,0.2,0.4,0.4,0.5,0.5l6.8,8.8l6.8-8.8c0.1-0.2,0.3-0.4,0.5-0.6s0.5-0.3,0.8-0.3h2.5
		c0.3,0,0.6,0.1,0.8,0.3c0.2,0.2,0.3,0.5,0.3,0.8c0,0.1,0,0.3-0.1,0.4c0,0.1-0.1,0.3-0.3,0.5L229,69.4l8.9,11.5
		c0.1,0.2,0.2,0.4,0.3,0.5c0,0.1,0.1,0.3,0.1,0.4c0,0.3-0.1,0.6-0.3,0.8c-0.2,0.2-0.5,0.3-0.8,0.3h-2.7c-0.3,0-0.6-0.1-0.8-0.2
		s-0.4-0.3-0.5-0.5l-7.2-9.3l-7.2,9.3c-0.1,0.1-0.3,0.3-0.5,0.5c-0.2,0.2-0.5,0.3-0.8,0.3C217.4,82.8,214.8,82.8,214.8,82.8z"/>
	<path d="M253.9,82.8c-1.9,0-3.5-0.4-4.6-1.1c-1.2-0.7-2.1-1.8-2.6-3.1c-0.5-1.3-0.8-2.9-0.8-4.8V60.4h-4c-0.3,0-0.6-0.1-0.8-0.3
		s-0.3-0.5-0.3-0.8v-1.7c0-0.3,0.1-0.6,0.3-0.8c0.2-0.2,0.5-0.3,0.8-0.3h4v-8.5c0-0.3,0.1-0.6,0.3-0.8s0.5-0.3,0.8-0.3h2.4
		c0.3,0,0.6,0.1,0.8,0.3s0.3,0.5,0.3,0.8v8.5h6.3c0.3,0,0.6,0.1,0.8,0.3c0.2,0.2,0.3,0.5,0.3,0.8v1.7c0,0.3-0.1,0.6-0.3,0.8
		c-0.2,0.2-0.5,0.3-0.8,0.3h-6.3v13.1c0,1.6,0.3,2.9,0.8,3.8c0.5,0.9,1.5,1.4,2.9,1.4h3.1c0.3,0,0.6,0.1,0.8,0.3
		c0.2,0.2,0.3,0.5,0.3,0.8v1.8c0,0.3-0.1,0.6-0.3,0.8c-0.2,0.2-0.5,0.3-0.8,0.3L253.9,82.8L253.9,82.8z"/>
	<path d="M278.9,82.8c-0.3,0-0.6-0.1-0.8-0.3c-0.2-0.2-0.3-0.5-0.3-0.8V60.4h-4.3c-0.3,0-0.6-0.1-0.8-0.3c-0.2-0.2-0.3-0.5-0.3-0.8
		v-1.7c0-0.3,0.1-0.6,0.3-0.8c0.2-0.2,0.5-0.3,0.8-0.3h4.3v-2.6c0-1.7,0.3-3.3,0.9-4.6c0.6-1.3,1.5-2.3,2.8-3c1.3-0.7,3-1.1,5.1-1.1
		h7.9c0.3,0,0.6,0.1,0.8,0.3c0.2,0.2,0.3,0.5,0.3,0.8V48c0,0.3-0.1,0.6-0.3,0.8c-0.2,0.2-0.5,0.3-0.8,0.3h-7.8
		c-1.6,0-2.7,0.4-3.3,1.2c-0.6,0.8-0.9,2-0.9,3.6v2.3h11.9c0.3,0,0.6,0.1,0.8,0.3c0.2,0.2,0.3,0.5,0.3,0.8v24.2
		c0,0.3-0.1,0.6-0.3,0.8c-0.2,0.2-0.5,0.3-0.8,0.3H292c-0.4,0-0.7-0.1-0.9-0.3c-0.2-0.2-0.3-0.5-0.3-0.8V60.4h-8.4v21.3
		c0,0.3-0.1,0.6-0.3,0.8c-0.2,0.2-0.5,0.3-0.8,0.3H278.9z"/>
	<path d="M304.2,82.8c-0.3,0-0.6-0.1-0.8-0.3c-0.2-0.2-0.3-0.5-0.3-0.8V57.5c0-0.3,0.1-0.6,0.3-0.9c0.2-0.2,0.5-0.4,0.8-0.4h2.3
		c0.3,0,0.6,0.1,0.9,0.4s0.4,0.5,0.4,0.9v2.2c0.7-1.2,1.6-2,2.8-2.6c1.2-0.6,2.6-0.9,4.3-0.9h2c0.3,0,0.6,0.1,0.8,0.3
		s0.3,0.5,0.3,0.8v2.1c0,0.3-0.1,0.6-0.3,0.8c-0.2,0.2-0.5,0.3-0.8,0.3h-3.1c-1.8,0-3.3,0.5-4.3,1.6s-1.6,2.5-1.6,4.4v15
		c0,0.3-0.1,0.6-0.4,0.8c-0.2,0.2-0.5,0.3-0.9,0.3L304.2,82.8L304.2,82.8z"/>
	<path d="M332.5,83.3c-3.5,0-6.3-1.1-8.4-3.2c-2.1-2.2-3.2-5.1-3.4-8.9c0-0.4,0-1,0-1.7s0-1.3,0-1.7c0.1-2.4,0.7-4.5,1.7-6.4
		c1-1.8,2.3-3.2,4.1-4.2c1.7-1,3.7-1.5,6-1.5c2.6,0,4.8,0.5,6.5,1.6s3.1,2.6,4,4.7c0.9,2,1.4,4.4,1.4,7V70c0,0.4-0.1,0.7-0.3,0.9
		c-0.2,0.2-0.5,0.3-0.8,0.3h-17.7c0,0,0,0.1,0,0.2c0,0.1,0,0.2,0,0.2c0.1,1.4,0.4,2.7,0.9,3.9c0.5,1.2,1.3,2.2,2.3,2.9
		s2.2,1.1,3.7,1.1c1.2,0,2.2-0.2,3.1-0.6c0.8-0.4,1.5-0.8,2-1.2c0.5-0.5,0.9-0.8,1-1.1c0.3-0.4,0.5-0.7,0.7-0.8
		c0.2-0.1,0.4-0.1,0.8-0.1h2.5c0.3,0,0.6,0.1,0.8,0.3c0.2,0.2,0.3,0.4,0.3,0.8c0,0.5-0.3,1.1-0.8,1.9s-1.2,1.5-2.2,2.2
		c-1,0.7-2.1,1.3-3.5,1.8C335.9,83.1,334.3,83.3,332.5,83.3z M325.6,67.6h14v-0.2c0-1.5-0.3-2.9-0.8-4.1s-1.4-2.1-2.4-2.8
		c-1-0.7-2.3-1.1-3.8-1.1c-1.5,0-2.7,0.3-3.8,1.1c-1,0.7-1.8,1.6-2.4,2.8c-0.5,1.2-0.8,2.6-0.8,4.1V67.6z"/>
	<path d="M363.7,83.3c-2,0-3.7-0.4-5.1-1.1s-2.5-1.6-3.3-2.7v2.1c0,0.3-0.1,0.6-0.3,0.8c-0.2,0.2-0.5,0.3-0.8,0.3h-2.4
		c-0.3,0-0.6-0.1-0.8-0.3c-0.2-0.2-0.3-0.5-0.3-0.8V47.8c0-0.3,0.1-0.6,0.3-0.8c0.2-0.2,0.5-0.3,0.8-0.3h2.5c0.4,0,0.7,0.1,0.9,0.3
		c0.2,0.2,0.3,0.5,0.3,0.8v11.7c0.9-1.1,2-1.9,3.3-2.7c1.3-0.7,3-1.1,5-1.1c1.9,0,3.5,0.3,4.9,1c1.3,0.7,2.5,1.6,3.3,2.7
		c0.9,1.2,1.5,2.5,2,3.9c0.4,1.5,0.7,3,0.7,4.6c0,0.5,0,1.1,0,1.5s0,1,0,1.5c0,1.6-0.3,3.2-0.7,4.7c-0.4,1.5-1.1,2.8-2,3.9
		c-0.9,1.1-2,2-3.3,2.7C367.2,83,365.6,83.3,363.7,83.3z M362.6,79.2c1.8,0,3.2-0.4,4.2-1.2c1-0.8,1.7-1.8,2.2-3s0.7-2.6,0.8-4
		c0-1,0-2,0-3c-0.1-1.4-0.3-2.8-0.8-4c-0.4-1.2-1.2-2.2-2.2-3c-1-0.8-2.4-1.2-4.2-1.2c-1.6,0-2.9,0.4-4,1.1
		c-1.1,0.7-1.9,1.7-2.4,2.9c-0.5,1.2-0.8,2.3-0.8,3.5c0,0.5,0,1.2,0,2s0,1.4,0,2c0.1,1.3,0.4,2.5,0.8,3.7s1.3,2.2,2.3,3
		C359.6,78.8,360.9,79.2,362.6,79.2z"/>
	<path d="M388.3,83.3c-1.7,0-3.2-0.3-4.7-1c-1.4-0.7-2.5-1.6-3.4-2.8c-0.8-1.2-1.3-2.5-1.3-3.9c0-2.3,1-4.2,2.9-5.6
		c1.9-1.4,4.4-2.3,7.5-2.8l7.6-1.1v-1.5c0-1.6-0.5-2.9-1.4-3.8c-0.9-0.9-2.5-1.4-4.6-1.4c-1.5,0-2.8,0.3-3.7,0.9
		c-0.9,0.6-1.6,1.4-2,2.3c-0.2,0.5-0.6,0.8-1.1,0.8H382c-0.4,0-0.7-0.1-0.8-0.3c-0.2-0.2-0.3-0.5-0.3-0.8c0-0.5,0.2-1.1,0.6-1.9
		c0.4-0.8,1-1.5,1.8-2.2s1.9-1.3,3.1-1.8s2.8-0.7,4.7-0.7c2,0,3.8,0.3,5.2,0.8c1.4,0.5,2.5,1.2,3.3,2.1c0.8,0.9,1.4,1.9,1.7,3
		s0.5,2.3,0.5,3.4v16.5c0,0.3-0.1,0.6-0.3,0.8c-0.2,0.2-0.5,0.3-0.8,0.3h-2.3c-0.4,0-0.7-0.1-0.9-0.3c-0.2-0.2-0.3-0.5-0.3-0.8v-2.2
		c-0.4,0.6-1,1.2-1.8,1.8s-1.7,1.1-2.8,1.5C391.3,83.2,390,83.3,388.3,83.3z M389.4,79.5c1.4,0,2.7-0.3,3.8-0.9
		c1.2-0.6,2.1-1.5,2.7-2.8c0.7-1.3,1-2.8,1-4.8v-1.4l-5.9,0.9c-2.4,0.3-4.2,0.9-5.5,1.7c-1.2,0.8-1.8,1.8-1.8,3
		c0,0.9,0.3,1.7,0.8,2.4s1.3,1.1,2.1,1.4C387.6,79.4,388.5,79.5,389.4,79.5z"/>
	<path d="M418.3,83.3c-1.9,0-3.5-0.2-4.9-0.7c-1.4-0.5-2.5-1.1-3.3-1.7c-0.9-0.7-1.5-1.4-1.9-2c-0.4-0.7-0.7-1.2-0.7-1.6
		c0-0.4,0.1-0.7,0.4-0.9c0.3-0.2,0.5-0.3,0.8-0.3h2.2c0.2,0,0.4,0,0.5,0.1s0.3,0.2,0.5,0.4c0.4,0.5,0.9,0.9,1.5,1.4
		c0.5,0.5,1.2,0.9,2,1.2c0.8,0.3,1.8,0.5,3,0.5c1.7,0,3.2-0.3,4.3-1c1.1-0.7,1.7-1.6,1.7-2.9c0-0.8-0.2-1.5-0.7-2
		c-0.5-0.5-1.3-1-2.5-1.4c-1.2-0.4-2.8-0.8-4.8-1.3c-2-0.5-3.7-1.1-4.9-1.8c-1.2-0.7-2-1.5-2.5-2.5s-0.8-2.1-0.8-3.3
		c0-1.3,0.4-2.5,1.1-3.7s1.8-2.1,3.3-2.9c1.5-0.8,3.3-1.1,5.4-1.1c1.8,0,3.3,0.2,4.5,0.7s2.3,1,3.1,1.7c0.8,0.7,1.4,1.3,1.8,2
		c0.4,0.7,0.6,1.2,0.7,1.6c0,0.3-0.1,0.6-0.3,0.8c-0.2,0.2-0.5,0.3-0.8,0.3h-2.1c-0.2,0-0.4-0.1-0.6-0.2c-0.1-0.1-0.3-0.2-0.4-0.4
		c-0.3-0.4-0.7-0.9-1.2-1.3c-0.5-0.4-1-0.8-1.8-1.1c-0.7-0.3-1.7-0.4-2.9-0.4c-1.7,0-3,0.4-3.8,1.1s-1.3,1.6-1.3,2.7
		c0,0.7,0.2,1.2,0.6,1.7c0.4,0.5,1.1,1,2.1,1.4c1,0.4,2.6,0.8,4.7,1.3c2.2,0.4,4,1,5.3,1.8c1.3,0.8,2.2,1.6,2.8,2.6
		c0.5,1,0.8,2.1,0.8,3.4c0,1.4-0.4,2.7-1.2,3.9c-0.8,1.2-2.1,2.1-3.7,2.8C422.7,83,420.7,83.3,418.3,83.3z"/>
	<path d="M445.7,83.3c-3.5,0-6.3-1.1-8.4-3.2c-2.1-2.2-3.2-5.1-3.4-8.9c0-0.4,0-1,0-1.7s0-1.3,0-1.7c0.1-2.4,0.7-4.5,1.7-6.4
		c1-1.8,2.3-3.2,4.1-4.2c1.7-1,3.7-1.5,6-1.5c2.6,0,4.8,0.5,6.5,1.6s3.1,2.6,4,4.7c0.9,2,1.4,4.4,1.4,7V70c0,0.4-0.1,0.7-0.3,0.9
		c-0.2,0.2-0.5,0.3-0.8,0.3h-17.7c0,0,0,0.1,0,0.2c0,0.1,0,0.2,0,0.2c0.1,1.4,0.4,2.7,0.9,3.9c0.5,1.2,1.3,2.2,2.4,2.9
		c1,0.8,2.2,1.1,3.7,1.1c1.2,0,2.2-0.2,3.1-0.6c0.8-0.4,1.5-0.8,2-1.2s0.8-0.8,1-1.1c0.3-0.4,0.5-0.7,0.7-0.8s0.4-0.1,0.8-0.1h2.5
		c0.3,0,0.6,0.1,0.8,0.3c0.2,0.2,0.3,0.4,0.3,0.8c0,0.5-0.3,1.1-0.8,1.9s-1.2,1.5-2.2,2.2c-1,0.7-2.1,1.3-3.5,1.8
		C449,83.1,447.5,83.3,445.7,83.3z M438.8,67.6h14v-0.2c0-1.5-0.3-2.9-0.8-4.1s-1.4-2.1-2.4-2.8c-1-0.7-2.3-1.1-3.8-1.1
		c-1.5,0-2.7,0.3-3.8,1.1c-1,0.7-1.8,1.6-2.4,2.8c-0.5,1.2-0.8,2.6-0.8,4.1V67.6z"/>
	<path d="M483.6,83.3c-1.7,0-3.2-0.3-4.7-1c-1.4-0.7-2.5-1.6-3.4-2.8c-0.8-1.2-1.3-2.5-1.3-3.9c0-2.3,1-4.2,2.9-5.6
		c1.9-1.4,4.4-2.3,7.5-2.8l7.6-1.1v-1.5c0-1.6-0.5-2.9-1.4-3.8c-0.9-0.9-2.5-1.4-4.6-1.4c-1.5,0-2.8,0.3-3.7,0.9
		c-0.9,0.6-1.6,1.4-2,2.3c-0.2,0.5-0.6,0.8-1.1,0.8h-2.3c-0.4,0-0.7-0.1-0.8-0.3c-0.2-0.2-0.3-0.5-0.3-0.8c0-0.5,0.2-1.1,0.6-1.9
		s1-1.5,1.8-2.2s1.9-1.3,3.1-1.8c1.3-0.5,2.8-0.7,4.7-0.7c2,0,3.8,0.3,5.2,0.8c1.4,0.5,2.5,1.2,3.3,2.1s1.4,1.9,1.7,3
		s0.5,2.3,0.5,3.4v16.5c0,0.3-0.1,0.6-0.3,0.8c-0.2,0.2-0.5,0.3-0.8,0.3h-2.3c-0.4,0-0.7-0.1-0.9-0.3c-0.2-0.2-0.3-0.5-0.3-0.8v-2.2
		c-0.4,0.6-1,1.2-1.8,1.8s-1.7,1.1-2.8,1.5C486.7,83.2,485.3,83.3,483.6,83.3z M484.7,79.5c1.4,0,2.7-0.3,3.8-0.9s2.1-1.5,2.7-2.8
		s1-2.8,1-4.8v-1.4l-5.9,0.9c-2.4,0.3-4.2,0.9-5.5,1.7c-1.2,0.8-1.8,1.8-1.8,3c0,0.9,0.3,1.7,0.8,2.4s1.3,1.1,2.1,1.4
		C482.9,79.4,483.8,79.5,484.7,79.5z"/>
	<path d="M514.3,83.3c-2.2,0-4-0.5-5.5-1.5s-2.7-2.3-3.5-4.1c-0.8-1.7-1.2-3.7-1.2-6V57.5c0-0.3,0.1-0.6,0.3-0.8
		c0.2-0.2,0.5-0.3,0.8-0.3h2.5c0.3,0,0.6,0.1,0.8,0.3c0.2,0.2,0.3,0.5,0.3,0.8v14.1c0,5.1,2.2,7.6,6.6,7.6c2.1,0,3.8-0.7,5.1-2
		c1.3-1.3,1.9-3.2,1.9-5.6V57.5c0-0.3,0.1-0.6,0.3-0.8c0.2-0.2,0.5-0.3,0.8-0.3h2.5c0.4,0,0.7,0.1,0.9,0.3c0.2,0.2,0.3,0.5,0.3,0.8
		v24.2c0,0.3-0.1,0.6-0.3,0.8c-0.2,0.2-0.5,0.3-0.9,0.3H524c-0.3,0-0.6-0.1-0.8-0.3c-0.2-0.2-0.3-0.5-0.3-0.8v-2.2
		c-0.9,1.2-2,2.1-3.3,2.9C518.2,83,516.5,83.3,514.3,83.3z"/>
	<path d="M545.5,82.8c-1.9,0-3.5-0.4-4.7-1.1c-1.2-0.7-2.1-1.8-2.6-3.1c-0.5-1.3-0.8-2.9-0.8-4.8V60.4h-4c-0.3,0-0.6-0.1-0.8-0.3
		c-0.2-0.2-0.3-0.5-0.3-0.8v-1.7c0-0.3,0.1-0.6,0.3-0.8c0.2-0.2,0.5-0.3,0.8-0.3h4v-8.5c0-0.3,0.1-0.6,0.3-0.8
		c0.2-0.2,0.5-0.3,0.8-0.3h2.4c0.3,0,0.6,0.1,0.8,0.3c0.2,0.2,0.3,0.5,0.3,0.8v8.5h6.3c0.3,0,0.6,0.1,0.8,0.3
		c0.2,0.2,0.3,0.5,0.3,0.8v1.7c0,0.3-0.1,0.6-0.3,0.8c-0.2,0.2-0.5,0.3-0.8,0.3h-6.3v13.1c0,1.6,0.3,2.9,0.8,3.8
		c0.5,0.9,1.5,1.4,2.9,1.4h3.1c0.3,0,0.6,0.1,0.8,0.3c0.2,0.2,0.3,0.5,0.3,0.8v1.8c0,0.3-0.1,0.6-0.3,0.8c-0.2,0.2-0.5,0.3-0.8,0.3
		L545.5,82.8L545.5,82.8z"/>
	<path d="M556.3,82.8c-0.3,0-0.6-0.1-0.8-0.3c-0.2-0.2-0.3-0.5-0.3-0.8V47.8c0-0.3,0.1-0.6,0.3-0.8c0.2-0.2,0.5-0.3,0.8-0.3h2.5
		c0.4,0,0.7,0.1,0.9,0.3c0.2,0.2,0.3,0.5,0.3,0.8v11.9c0.9-1.2,2-2.1,3.4-2.8s3-1.1,5-1.1c2.2,0,4.1,0.5,5.6,1.5
		c1.5,1,2.7,2.3,3.5,4s1.2,3.7,1.2,6v14.4c0,0.3-0.1,0.6-0.3,0.8c-0.2,0.2-0.5,0.3-0.9,0.3h-2.5c-0.3,0-0.6-0.1-0.8-0.3
		c-0.2-0.2-0.3-0.5-0.3-0.8V67.5c0-2.4-0.6-4.2-1.7-5.6c-1.2-1.3-2.9-2-5.1-2c-2.1,0-3.8,0.7-5.1,2c-1.3,1.3-1.9,3.2-1.9,5.6v14.1
		c0,0.3-0.1,0.6-0.3,0.8c-0.2,0.2-0.5,0.3-0.9,0.3L556.3,82.8L556.3,82.8z"/>
	<path d="M609.3,83.3c-3.5,0-6.3-1.1-8.4-3.2c-2.1-2.2-3.2-5.1-3.4-8.9c0-0.4,0-1,0-1.7s0-1.3,0-1.7c0.1-2.4,0.7-4.5,1.7-6.4
		c1-1.8,2.3-3.2,4.1-4.2s3.7-1.5,6-1.5c2.6,0,4.8,0.5,6.5,1.6s3.1,2.6,4,4.7s1.4,4.4,1.4,7V70c0,0.4-0.1,0.7-0.3,0.9
		c-0.2,0.2-0.5,0.3-0.8,0.3h-17.7c0,0,0,0.1,0,0.2c0,0.1,0,0.2,0,0.2c0.1,1.4,0.4,2.7,0.9,3.9c0.5,1.2,1.3,2.2,2.3,2.9
		c1,0.8,2.2,1.1,3.7,1.1c1.2,0,2.2-0.2,3.1-0.6c0.8-0.4,1.5-0.8,2-1.2s0.8-0.8,1-1.1c0.3-0.4,0.5-0.7,0.7-0.8
		c0.2-0.1,0.4-0.1,0.8-0.1h2.5c0.3,0,0.6,0.1,0.8,0.3c0.2,0.2,0.3,0.4,0.3,0.8c0,0.5-0.3,1.1-0.8,1.9s-1.2,1.5-2.2,2.2
		c-1,0.7-2.1,1.3-3.5,1.8C612.6,83.1,611,83.3,609.3,83.3z M602.3,67.6h14v-0.2c0-1.5-0.3-2.9-0.8-4.1s-1.4-2.1-2.4-2.8
		c-1-0.7-2.3-1.1-3.8-1.1c-1.5,0-2.7,0.3-3.8,1.1c-1,0.7-1.8,1.6-2.4,2.8s-0.8,2.6-0.8,4.1L602.3,67.6L602.3,67.6z"/>
	<path d="M637,83.3c-1.9,0-3.5-0.3-4.8-1c-1.4-0.7-2.5-1.6-3.3-2.7c-0.9-1.1-1.5-2.4-1.9-3.9c-0.4-1.5-0.7-3-0.7-4.7
		c0-0.5,0-1.1,0-1.5s0-1,0-1.5c0.1-1.6,0.3-3.1,0.7-4.6s1.1-2.8,1.9-3.9s2-2.1,3.3-2.7c1.4-0.7,3-1,4.8-1c2,0,3.7,0.4,5,1.1
		c1.3,0.7,2.4,1.6,3.3,2.7V47.8c0-0.3,0.1-0.6,0.3-0.8c0.2-0.2,0.5-0.3,0.8-0.3h2.5c0.3,0,0.6,0.1,0.8,0.3c0.2,0.2,0.3,0.5,0.3,0.8
		v33.9c0,0.3-0.1,0.6-0.3,0.8c-0.2,0.2-0.5,0.3-0.8,0.3h-2.3c-0.4,0-0.7-0.1-0.9-0.3c-0.2-0.2-0.3-0.5-0.3-0.8v-2.1
		c-0.8,1.1-2,2-3.3,2.7S639,83.3,637,83.3z M638.1,79.2c1.7,0,3.1-0.4,4.1-1.2s1.8-1.8,2.3-3s0.8-2.4,0.8-3.7c0-0.5,0-1.2,0-2
		s0-1.4,0-2c0-1.2-0.3-2.4-0.8-3.5c-0.5-1.2-1.3-2.1-2.3-2.9s-2.4-1.1-4-1.1c-1.7,0-3.1,0.4-4.1,1.2c-1,0.8-1.8,1.8-2.2,3
		c-0.4,1.2-0.7,2.6-0.8,4c0,1,0,2,0,3c0.1,1.4,0.3,2.8,0.8,4c0.4,1.2,1.2,2.2,2.2,3C635,78.8,636.3,79.2,638.1,79.2z"/>
	<path d="M668.5,94.1c-2.3,0-4.2-0.3-5.7-0.9s-2.6-1.3-3.5-2.2c-0.8-0.9-1.4-1.7-1.8-2.6s-0.5-1.6-0.6-2.1c0-0.3,0.1-0.6,0.3-0.9
		c0.2-0.2,0.5-0.4,0.8-0.4h2.5c0.3,0,0.6,0.1,0.8,0.2c0.2,0.1,0.4,0.4,0.5,0.9c0.2,0.5,0.5,1.1,0.9,1.7s1,1.2,1.9,1.6
		c0.8,0.5,2,0.7,3.6,0.7c1.6,0,2.9-0.2,4-0.6s1.9-1.2,2.5-2.2s0.8-2.5,0.8-4.4v-3.5c-0.8,1.1-1.9,1.9-3.2,2.6c-1.3,0.7-3,1.1-5,1.1
		c-1.9,0-3.5-0.3-4.9-1c-1.4-0.7-2.5-1.6-3.3-2.7c-0.9-1.1-1.5-2.4-1.9-3.9c-0.4-1.5-0.7-3-0.7-4.6c0-0.9,0-1.9,0-2.8
		c0.1-1.6,0.3-3.1,0.7-4.6s1.1-2.8,1.9-3.9s2-2.1,3.3-2.7c1.4-0.7,3-1,4.9-1c2,0,3.7,0.4,5.1,1.2s2.4,1.7,3.3,2.8v-2.2
		c0-0.3,0.1-0.6,0.3-0.9c0.2-0.2,0.5-0.4,0.8-0.4h2.3c0.3,0,0.6,0.1,0.9,0.4s0.4,0.5,0.4,0.9v24.8c0,2.3-0.4,4.3-1.2,6.1
		c-0.8,1.8-2,3.2-3.8,4.2C673.9,93.6,671.5,94.1,668.5,94.1z M668.5,79c1.7,0,3.1-0.4,4.1-1.2s1.8-1.8,2.3-3
		c0.5-1.2,0.8-2.4,0.8-3.6c0-0.5,0-1.1,0-1.8c0-0.7,0-1.3,0-1.8c0-1.2-0.3-2.4-0.8-3.6s-1.3-2.2-2.3-3s-2.4-1.2-4.1-1.2
		s-3.1,0.4-4.1,1.2c-1,0.8-1.8,1.8-2.2,3c-0.4,1.2-0.7,2.6-0.8,4c0,0.9,0,1.8,0,2.7c0.1,1.4,0.3,2.8,0.8,4c0.4,1.2,1.2,2.2,2.2,3
		C665.4,78.6,666.8,79,668.5,79z"/>
	<path d="M698.7,83.3c-3.5,0-6.3-1.1-8.4-3.2c-2.1-2.2-3.2-5.1-3.4-8.9c0-0.4,0-1,0-1.7s0-1.3,0-1.7c0.1-2.4,0.7-4.5,1.7-6.4
		c1-1.8,2.3-3.2,4.1-4.2s3.7-1.5,6-1.5c2.6,0,4.8,0.5,6.5,1.6s3.1,2.6,4,4.7s1.4,4.4,1.4,7V70c0,0.4-0.1,0.7-0.3,0.9
		c-0.2,0.2-0.5,0.3-0.8,0.3h-17.7c0,0,0,0.1,0,0.2c0,0.1,0,0.2,0,0.2c0.1,1.4,0.4,2.7,0.9,3.9c0.5,1.2,1.3,2.2,2.3,2.9
		c1,0.8,2.2,1.1,3.7,1.1c1.2,0,2.2-0.2,3.1-0.6c0.8-0.4,1.5-0.8,2-1.2s0.8-0.8,1-1.1c0.3-0.4,0.5-0.7,0.7-0.8
		c0.2-0.1,0.4-0.1,0.8-0.1h2.5c0.3,0,0.6,0.1,0.8,0.3c0.2,0.2,0.3,0.4,0.3,0.8c0,0.5-0.3,1.1-0.8,1.9s-1.2,1.5-2.2,2.2
		c-1,0.7-2.1,1.3-3.5,1.8C702.1,83.1,700.5,83.3,698.7,83.3z M691.8,67.6h14v-0.2c0-1.5-0.3-2.9-0.8-4.1s-1.4-2.1-2.4-2.8
		c-1-0.7-2.3-1.1-3.8-1.1c-1.5,0-2.7,0.3-3.8,1.1c-1,0.7-1.8,1.6-2.4,2.8s-0.8,2.6-0.8,4.1L691.8,67.6L691.8,67.6z"/>
</g>
</svg>
