<svg id="Layer_1" data-name="Layer 1" xmlns="http://www.w3.org/2000/svg" width="1366" height="384" viewBox="0 0 1366 384">
  <rect width="1366" height="384" style="fill: none"/>
  <g>
    <path d="M222.1,65.29c-.37,0-1.54.15-2.59.23a85.54,85.54,0,0,0-61.31,35.36,84.33,84.33,0,0,0-15.06,37.27,64.76,64.76,0,0,0-.77,12.42,64.81,64.81,0,0,0,.77,12.43,85.62,85.62,0,0,0,58.36,68.92,89.53,89.53,0,0,0,18,3.74,159.23,159.23,0,0,0,16.35,0,86.16,86.16,0,0,0,30.74-9c1.47-.75,1.75-.95,1.55-1.12s-6.39-8.48-13.89-18.62L240.61,188.5l-17.09-25.3c-9.41-13.91-17.15-25.28-17.22-25.28s-.13,11.22-.16,25c0,24-.07,25-.37,25.56A3.07,3.07,0,0,1,204.3,190c-.53.27-1,.32-3.52.32H197.9l-.77-.49a3,3,0,0,1-1.12-1.22l-.35-.75,0-33.43.05-33.46.52-.65a4.51,4.51,0,0,1,1.24-1c.68-.34.95-.37,3.83-.37,3.4,0,4,.13,4.86,1.1.25.27,9.5,14.21,20.58,31s26.22,39.73,33.66,51l13.51,20.47.68-.45a87.47,87.47,0,0,0,17.53-15.38A84.88,84.88,0,0,0,312.23,163a64.81,64.81,0,0,0,.77-12.43,64.76,64.76,0,0,0-.77-12.42,85.65,85.65,0,0,0-58.36-68.93,89.85,89.85,0,0,0-17.76-3.71c-1.6-.17-12.63-.35-14-.22ZM257,116.89a3.34,3.34,0,0,1,1.69,2c.13.43.17,9.7.13,30.6l0,30-5.29-8.1-5.3-8.11V141.44c0-14.1.07-22,.17-22.4a3.35,3.35,0,0,1,1.65-2.1c.68-.35.93-.39,3.55-.39S256.47,116.59,257,116.89Z"/>
    <path d="M1138,65.56l98.66,171H1039.37Z" style="fill-rule: evenodd"/>
    <path id="icon" d="M622.93,178.72,640.44,66.54A4,4,0,0,1,648,65.23l18.81,35.21Zm125,26.06L730.69,102.66a4.06,4.06,0,0,0-6.84-2.22L618.07,204.78l58.79,33.91a12.24,12.24,0,0,0,11.77,0ZM700.1,115.83,686.62,90.18a4,4,0,0,0-7.14,0L620.22,195.83Z"/>
    <path d="M455.7,130.86v17.4h16.74v4.45H455.7v17.55H451V152.71H434.23v-4.45H451v-17.4Z"/>
    <path d="M910.7,130.86v17.4h16.74v4.45H910.7v17.55H906V152.71H889.23v-4.45H906v-17.4Z"/>
    <g>
      <path d="M178.49,307.25a1.07,1.07,0,0,1-.84-.32,1.16,1.16,0,0,1-.29-.81v-32a1.26,1.26,0,0,1,.29-.86,1.1,1.1,0,0,1,.84-.31h2.26a1.32,1.32,0,0,1,.88.26,1.37,1.37,0,0,1,.34.42l16.29,25V274.09a1.21,1.21,0,0,1,.29-.86,1.08,1.08,0,0,1,.83-.31h2.36a1.09,1.09,0,0,1,1.18,1.17v32a1.2,1.2,0,0,1-.32.84,1.06,1.06,0,0,1-.81.34h-2.36a1.07,1.07,0,0,1-.81-.29l-.36-.39L182,281.79v24.33a1.1,1.1,0,0,1-.32.81,1.13,1.13,0,0,1-.86.32Z"/>
      <path d="M220.92,307.74a10.64,10.64,0,0,1-8-3.11,12.85,12.85,0,0,1-3.28-8.51c0-.43-.05-1-.05-1.65s0-1.21.05-1.64a14.34,14.34,0,0,1,1.62-6.11,9.93,9.93,0,0,1,3.9-4,11.43,11.43,0,0,1,5.81-1.43,11.69,11.69,0,0,1,6.25,1.57,10,10,0,0,1,3.85,4.47,16,16,0,0,1,1.33,6.77v.83a1.07,1.07,0,0,1-.32.83,1.13,1.13,0,0,1-.81.3h-17v.44a10.2,10.2,0,0,0,.88,3.75,7,7,0,0,0,2.26,2.82,5.78,5.78,0,0,0,3.53,1.08,7,7,0,0,0,2.94-.54,7.47,7.47,0,0,0,1.91-1.2,7.94,7.94,0,0,0,1-1,2.4,2.4,0,0,1,.68-.76,1.76,1.76,0,0,1,.79-.13h2.35a1.2,1.2,0,0,1,.81.27.84.84,0,0,1,.27.76,3.75,3.75,0,0,1-.78,1.79,9.5,9.5,0,0,1-2.11,2.09,12,12,0,0,1-3.34,1.69A14.13,14.13,0,0,1,220.92,307.74Zm-6.67-15.11h13.44v-.14a9.14,9.14,0,0,0-.81-3.93,6.58,6.58,0,0,0-2.33-2.72,6.46,6.46,0,0,0-3.63-1,6.33,6.33,0,0,0-3.61,1,6.54,6.54,0,0,0-2.28,2.72,9.44,9.44,0,0,0-.78,3.93Z"/>
      <path d="M236.52,307.25a1,1,0,0,1-.71-.29.94.94,0,0,1-.32-.74,1.18,1.18,0,0,1,.07-.37,2.58,2.58,0,0,1,.27-.51l8.54-11.14-8-10.54a2.83,2.83,0,0,1-.27-.49,1.09,1.09,0,0,1-.07-.4,1,1,0,0,1,.29-.73,1,1,0,0,1,.74-.3h2.5a1.1,1.1,0,0,1,.81.27,6.63,6.63,0,0,1,.46.52l6.53,8.49,6.52-8.44c.13-.16.29-.34.47-.54a1,1,0,0,1,.81-.3h2.4a1,1,0,0,1,.74.3,1,1,0,0,1,.29.73,1.09,1.09,0,0,1-.07.4,2.83,2.83,0,0,1-.27.49l-8.1,10.64,8.54,11a2.83,2.83,0,0,1,.27.49,1.07,1.07,0,0,1,.07.39,1,1,0,0,1-1,1h-2.6a1.19,1.19,0,0,1-.78-.24,3.77,3.77,0,0,1-.49-.49l-6.92-9-6.92,9-.46.46a1.1,1.1,0,0,1-.81.27Z"/>
      <path d="M274.09,307.25a8.44,8.44,0,0,1-4.46-1.05,6.08,6.08,0,0,1-2.5-3,12.12,12.12,0,0,1-.79-4.59V285.67h-3.82a1.1,1.1,0,0,1-.81-.32,1.06,1.06,0,0,1-.32-.81v-1.67a1.09,1.09,0,0,1,1.13-1.13h3.82v-8.19a1.13,1.13,0,0,1,.32-.81,1.1,1.1,0,0,1,.81-.32h2.3a1.09,1.09,0,0,1,1.13,1.13v8.19H277a1.09,1.09,0,0,1,1.12,1.13v1.67a1.06,1.06,0,0,1-.32.81,1.09,1.09,0,0,1-.8.32H270.9v12.61a7.08,7.08,0,0,0,.79,3.63,3,3,0,0,0,2.79,1.32h3a1.13,1.13,0,0,1,.81.32,1.09,1.09,0,0,1,.31.81v1.76a1.08,1.08,0,0,1-1.12,1.13Z"/>
    </g>
    <g>
      <path d="M530.79,308a1.11,1.11,0,0,1-.84-.32,1.16,1.16,0,0,1-.29-.81v-32a1.24,1.24,0,0,1,.29-.86,1.11,1.11,0,0,1,.84-.32h20a1.07,1.07,0,0,1,.83.32,1.2,1.2,0,0,1,.3.86v2a1,1,0,0,1-1.13,1.13H534.42v11.43h15.4a1.07,1.07,0,0,1,.83.32,1.2,1.2,0,0,1,.3.86v2a1.13,1.13,0,0,1-.3.81,1.07,1.07,0,0,1-.83.32h-15.4v13.24a1.1,1.1,0,0,1-.32.81,1.17,1.17,0,0,1-.86.32Z"/>
      <path d="M558.16,277.68a1.09,1.09,0,0,1-.81-.31,1.13,1.13,0,0,1-.32-.81v-2.65a1.1,1.1,0,0,1,.32-.81,1.06,1.06,0,0,1,.81-.32h3.09a1.06,1.06,0,0,1,.81.32,1.1,1.1,0,0,1,.32.81v2.65a1.13,1.13,0,0,1-.32.81,1.09,1.09,0,0,1-.81.31Zm.39,30.27a1.09,1.09,0,0,1-1.13-1.13V283.57a1.09,1.09,0,0,1,1.13-1.13h2.36a1,1,0,0,1,.78.32,1.13,1.13,0,0,1,.3.81v23.25a1.13,1.13,0,0,1-.3.81,1,1,0,0,1-.78.32Z"/>
      <path d="M570.86,308a1.13,1.13,0,0,1-.81-.32,1.1,1.1,0,0,1-.32-.81v-23.2a1.16,1.16,0,0,1,.32-.83,1.08,1.08,0,0,1,.81-.35h2.26a1.13,1.13,0,0,1,.83.35,1.11,1.11,0,0,1,.35.83v2.16a6.18,6.18,0,0,1,2.69-2.5,9.32,9.32,0,0,1,4.12-.84h2a1,1,0,0,1,.78.32,1.13,1.13,0,0,1,.3.81v2a1,1,0,0,1-1.08,1.08h-3a5.61,5.61,0,0,0-4.17,1.55,5.72,5.72,0,0,0-1.52,4.19v14.42a1,1,0,0,1-.34.81,1.2,1.2,0,0,1-.83.32Z"/>
      <path d="M598,308.44a10.67,10.67,0,0,1-8-3.11,12.85,12.85,0,0,1-3.28-8.52c0-.42-.05-1-.05-1.64s0-1.22.05-1.64a14.34,14.34,0,0,1,1.62-6.11,10,10,0,0,1,3.9-4.05,12.92,12.92,0,0,1,12.06.15,10,10,0,0,1,3.85,4.46,16.07,16.07,0,0,1,1.33,6.77v.84a1.07,1.07,0,0,1-.32.83,1.13,1.13,0,0,1-.81.3h-17v.44a10.2,10.2,0,0,0,.88,3.75,6.9,6.9,0,0,0,2.26,2.82,5.78,5.78,0,0,0,3.53,1.08,7.05,7.05,0,0,0,2.94-.54,7.47,7.47,0,0,0,1.91-1.2,7.87,7.87,0,0,0,1-1,2.53,2.53,0,0,1,.68-.76,1.94,1.94,0,0,1,.79-.12h2.35a1.2,1.2,0,0,1,.81.27.83.83,0,0,1,.27.76A3.75,3.75,0,0,1,608,304a9.7,9.7,0,0,1-2.11,2.08,11.76,11.76,0,0,1-3.34,1.7A14.13,14.13,0,0,1,598,308.44Zm-6.67-15.11h13.44v-.15a9.1,9.1,0,0,0-.81-3.92,6.58,6.58,0,0,0-2.33-2.72,6.46,6.46,0,0,0-3.63-1,6.33,6.33,0,0,0-3.61,1,6.39,6.39,0,0,0-2.28,2.72,9.39,9.39,0,0,0-.78,3.92Z"/>
      <path d="M628,308.44a10.22,10.22,0,0,1-4.91-1.06,9.33,9.33,0,0,1-3.13-2.62v2.06a1.1,1.1,0,0,1-.32.81,1.13,1.13,0,0,1-.81.32h-2.26a1.09,1.09,0,0,1-1.13-1.13V274.25a1.09,1.09,0,0,1,1.13-1.13h2.35a1.11,1.11,0,0,1,.84.32,1.12,1.12,0,0,1,.29.81v11.28a9.72,9.72,0,0,1,8-3.58,10.44,10.44,0,0,1,4.68,1,8.71,8.71,0,0,1,3.19,2.62,11.77,11.77,0,0,1,1.89,3.78,16.13,16.13,0,0,1,.69,4.41c0,.53.05,1,.05,1.48s0,.94-.05,1.47a16.19,16.19,0,0,1-.69,4.46,11.42,11.42,0,0,1-1.89,3.75,8.66,8.66,0,0,1-3.19,2.6A10.44,10.44,0,0,1,628,308.44Zm-1-4a6.44,6.44,0,0,0,4-1.11,6.11,6.11,0,0,0,2.08-2.89,13.29,13.29,0,0,0,.74-3.85q0-1.42,0-2.85a13.35,13.35,0,0,0-.74-3.85,6.11,6.11,0,0,0-2.08-2.89,6.44,6.44,0,0,0-4-1.11A6.54,6.54,0,0,0,623.1,287a6.83,6.83,0,0,0-2.28,2.75,8.77,8.77,0,0,0-.81,3.39c0,.52,0,1.15,0,1.88s0,1.37,0,1.89a11.15,11.15,0,0,0,.81,3.56,6.73,6.73,0,0,0,2.21,2.87A6.33,6.33,0,0,0,626.93,304.47Z"/>
      <path d="M651.65,308.44a10.1,10.1,0,0,1-4.46-1,8.74,8.74,0,0,1-3.24-2.65,6.2,6.2,0,0,1-1.23-3.78,6.36,6.36,0,0,1,2.75-5.39,15.73,15.73,0,0,1,7.16-2.65l7.31-1v-1.42a4.92,4.92,0,0,0-1.35-3.68c-.9-.89-2.36-1.33-4.39-1.33a6.35,6.35,0,0,0-3.55.89,4.71,4.71,0,0,0-1.89,2.25,1.05,1.05,0,0,1-1,.74h-2.21a1,1,0,0,1-.81-.32,1.14,1.14,0,0,1-.27-.76,4.21,4.21,0,0,1,.56-1.82,7.51,7.51,0,0,1,1.75-2.11,10.28,10.28,0,0,1,3-1.74,12.63,12.63,0,0,1,4.49-.71,14.33,14.33,0,0,1,5,.76,8,8,0,0,1,3.16,2,7.85,7.85,0,0,1,1.67,2.89,10.91,10.91,0,0,1,.51,3.29v15.89a1.06,1.06,0,0,1-.32.81,1.1,1.1,0,0,1-.81.32h-2.25a1.11,1.11,0,0,1-.84-.32,1.16,1.16,0,0,1-.29-.81v-2.11a9.08,9.08,0,0,1-4.42,3.17A12.28,12.28,0,0,1,651.65,308.44Zm1-3.68a8,8,0,0,0,3.68-.86,6,6,0,0,0,2.62-2.67,9.69,9.69,0,0,0,1-4.56v-1.38l-5.69.84a13.19,13.19,0,0,0-5.25,1.64,3.41,3.41,0,0,0-1.76,2.92,3.28,3.28,0,0,0,.81,2.28,4.76,4.76,0,0,0,2.06,1.35A7.76,7.76,0,0,0,652.68,304.76Z"/>
      <path d="M680.44,308.44a14.16,14.16,0,0,1-4.7-.69,10.37,10.37,0,0,1-3.19-1.67,7.89,7.89,0,0,1-1.84-2,3.76,3.76,0,0,1-.66-1.57.86.86,0,0,1,.34-.83,1.28,1.28,0,0,1,.78-.3h2.16a1.21,1.21,0,0,1,.47.08,1.58,1.58,0,0,1,.46.42c.43.45.9.91,1.43,1.37a6.47,6.47,0,0,0,1.93,1.13,8.21,8.21,0,0,0,2.87.44,8,8,0,0,0,4.12-1,3.08,3.08,0,0,0,1.62-2.82,2.82,2.82,0,0,0-.66-2,5.83,5.83,0,0,0-2.35-1.33,41.51,41.51,0,0,0-4.64-1.22,17.07,17.07,0,0,1-4.66-1.69,6.17,6.17,0,0,1-2.45-2.41,6.67,6.67,0,0,1-.74-3.16,6.45,6.45,0,0,1,1.08-3.51A7.94,7.94,0,0,1,675,283,11.25,11.25,0,0,1,680.2,282a13.06,13.06,0,0,1,4.36.64,10.09,10.09,0,0,1,3,1.59,8.18,8.18,0,0,1,1.76,1.89,3.56,3.56,0,0,1,.64,1.57,1,1,0,0,1-.29.81,1.14,1.14,0,0,1-.79.32h-2.06a1,1,0,0,1-.56-.15,2.72,2.72,0,0,1-.42-.34,12.06,12.06,0,0,0-1.15-1.28A5.34,5.34,0,0,0,683,286a7.61,7.61,0,0,0-2.77-.42,5.65,5.65,0,0,0-3.68,1,3.26,3.26,0,0,0-1.23,2.6,2.76,2.76,0,0,0,.54,1.67,4.57,4.57,0,0,0,2.06,1.32,34.37,34.37,0,0,0,4.52,1.28,17.08,17.08,0,0,1,5.1,1.72,6.85,6.85,0,0,1,2.65,2.5,6.71,6.71,0,0,1,.78,3.28,6.43,6.43,0,0,1-1.2,3.78,8,8,0,0,1-3.53,2.72A14.62,14.62,0,0,1,680.44,308.44Z"/>
      <path d="M706.79,308.44a10.67,10.67,0,0,1-8-3.11,12.91,12.91,0,0,1-3.29-8.52c0-.42,0-1,0-1.64s0-1.22,0-1.64a14.34,14.34,0,0,1,1.62-6.11,10.15,10.15,0,0,1,3.9-4.05,12.94,12.94,0,0,1,12.07.15,10.07,10.07,0,0,1,3.85,4.46,16.23,16.23,0,0,1,1.32,6.77v.84a1.06,1.06,0,0,1-.31.83,1.16,1.16,0,0,1-.81.3h-17v.44a10.21,10.21,0,0,0,.89,3.75,7,7,0,0,0,2.25,2.82,5.81,5.81,0,0,0,3.54,1.08,7.08,7.08,0,0,0,2.94-.54,7.65,7.65,0,0,0,1.91-1.2,7,7,0,0,0,1-1,2.66,2.66,0,0,1,.69-.76,1.86,1.86,0,0,1,.78-.12h2.36a1.22,1.22,0,0,1,.81.27.83.83,0,0,1,.27.76,3.78,3.78,0,0,1-.79,1.79,9.27,9.27,0,0,1-2.11,2.08,11.57,11.57,0,0,1-3.33,1.7A14.13,14.13,0,0,1,706.79,308.44Zm-6.68-15.11h13.44v-.15a9.09,9.09,0,0,0-.8-3.92,6.58,6.58,0,0,0-2.33-2.72,6.46,6.46,0,0,0-3.63-1,6.33,6.33,0,0,0-3.61,1,6.39,6.39,0,0,0-2.28,2.72,9.4,9.4,0,0,0-.79,3.92Z"/>
      <path d="M733.18,308a1,1,0,0,1-.69-.29,1,1,0,0,1-.3-.69,3.5,3.5,0,0,1,0-.54l12.17-31.74a2,2,0,0,1,.54-.78,1.53,1.53,0,0,1,1-.3h3.33a1.56,1.56,0,0,1,1,.3,1.89,1.89,0,0,1,.56.78L763,306.43a1.82,1.82,0,0,1,.1.54,1,1,0,0,1-.3.69.94.94,0,0,1-.68.29h-2.5a1.13,1.13,0,0,1-.86-.29,1.86,1.86,0,0,1-.37-.54l-2.7-7H739.6l-2.7,7a1.11,1.11,0,0,1-.34.54,1.23,1.23,0,0,1-.88.29Zm7.84-12h13.25l-6.62-17.41Z"/>
      <path d="M776.88,308.44a9.67,9.67,0,0,1-5.32-1.4,8.74,8.74,0,0,1-3.31-3.9,13.87,13.87,0,0,1-1.13-5.74V283.57a1.09,1.09,0,0,1,1.13-1.13h2.45a1.09,1.09,0,0,1,1.13,1.13v13.59q0,7.3,6.38,7.31a6.44,6.44,0,0,0,4.88-1.94,7.51,7.51,0,0,0,1.84-5.37V283.57a1.06,1.06,0,0,1,.32-.81,1.09,1.09,0,0,1,.8-.32h2.41a1.07,1.07,0,0,1,.83.32,1.13,1.13,0,0,1,.3.81v23.25a1.13,1.13,0,0,1-.3.81,1.07,1.07,0,0,1-.83.32H786.2a1.13,1.13,0,0,1-.81-.32,1.1,1.1,0,0,1-.32-.81v-2.16a10.09,10.09,0,0,1-3.21,2.75A10.36,10.36,0,0,1,776.88,308.44Z"/>
      <path d="M806.85,308a8.34,8.34,0,0,1-4.46-1.06,6,6,0,0,1-2.5-3,12,12,0,0,1-.79-4.58V286.37h-3.82a1.1,1.1,0,0,1-.81-.32,1.08,1.08,0,0,1-.32-.81v-1.67a1.06,1.06,0,0,1,.32-.81,1.1,1.1,0,0,1,.81-.32h3.82v-8.19a1.09,1.09,0,0,1,1.13-1.13h2.31a1.13,1.13,0,0,1,.81.32,1.09,1.09,0,0,1,.31.81v8.19h6.09a1.13,1.13,0,0,1,.81.32,1.1,1.1,0,0,1,.32.81v1.67a1.12,1.12,0,0,1-.32.81,1.13,1.13,0,0,1-.81.32h-6.09V299a7.14,7.14,0,0,0,.79,3.63,3,3,0,0,0,2.8,1.33h3a1.09,1.09,0,0,1,1.13,1.12v1.77a1.1,1.1,0,0,1-.32.81,1.13,1.13,0,0,1-.81.32Z"/>
      <path d="M817.25,308a1.09,1.09,0,0,1-1.13-1.13V274.25a1.09,1.09,0,0,1,1.13-1.13h2.45a1.11,1.11,0,0,1,.84.32,1.16,1.16,0,0,1,.29.81v11.43a10.47,10.47,0,0,1,3.24-2.7,11.55,11.55,0,0,1,10.28.37,8.92,8.92,0,0,1,3.38,3.87,13.57,13.57,0,0,1,1.15,5.77v13.83a1.12,1.12,0,0,1-.29.81,1.08,1.08,0,0,1-.83.32H835.3a1.13,1.13,0,0,1-.81-.32,1.1,1.1,0,0,1-.32-.81V293.23a8,8,0,0,0-1.66-5.37,6.14,6.14,0,0,0-4.91-1.94,6.48,6.48,0,0,0-4.9,1.94,7.39,7.39,0,0,0-1.87,5.37v13.59a1.16,1.16,0,0,1-.29.81,1.11,1.11,0,0,1-.84.32Z"/>
    </g>
    <g>
      <path d="M1086.57,308a1.11,1.11,0,0,1-.84-.32,1.16,1.16,0,0,1-.29-.81v-32a1.24,1.24,0,0,1,.29-.86,1.11,1.11,0,0,1,.84-.32h20.25a1.11,1.11,0,0,1,.84.32,1.24,1.24,0,0,1,.29.86v1.86a1,1,0,0,1-1.13,1.13h-16.67v10.74h15.59a1.11,1.11,0,0,1,.84.32,1.26,1.26,0,0,1,.29.86v1.82a1.2,1.2,0,0,1-.29.81,1.1,1.1,0,0,1-.84.31h-15.59v11.14h17.07a1.15,1.15,0,0,1,.83.29,1.13,1.13,0,0,1,.29.84v1.91a1.12,1.12,0,0,1-.29.81,1.08,1.08,0,0,1-.83.32Z"/>
      <path d="M1123.55,308.44a10.5,10.5,0,0,1-4.66-1,8.65,8.65,0,0,1-3.21-2.6,11.19,11.19,0,0,1-1.87-3.75,18.82,18.82,0,0,1-.71-4.46c0-.53,0-1,0-1.47s0-.95,0-1.48a18.81,18.81,0,0,1,.71-4.41,11.53,11.53,0,0,1,1.87-3.78,8.7,8.7,0,0,1,3.21-2.62,10.5,10.5,0,0,1,4.66-1,10,10,0,0,1,4.81,1,10.34,10.34,0,0,1,3.14,2.55V274.25a1.06,1.06,0,0,1,.32-.81,1.09,1.09,0,0,1,.8-.32H1135a1.09,1.09,0,0,1,1.13,1.13v32.57A1.09,1.09,0,0,1,1135,308h-2.21a1.07,1.07,0,0,1-.83-.32,1.13,1.13,0,0,1-.3-.81v-2.06a9.83,9.83,0,0,1-3.18,2.62A10.22,10.22,0,0,1,1123.55,308.44Zm1-4a6.29,6.29,0,0,0,3.92-1.13,6.89,6.89,0,0,0,2.21-2.87,9.93,9.93,0,0,0,.79-3.56c0-.52,0-1.15,0-1.89s0-1.36,0-1.88a9,9,0,0,0-.81-3.39,6.86,6.86,0,0,0-2.26-2.75,7.53,7.53,0,0,0-7.82,0,6,6,0,0,0-2.11,2.89,13.35,13.35,0,0,0-.74,3.85q0,1.43,0,2.85a13.29,13.29,0,0,0,.74,3.85,6,6,0,0,0,2.11,2.89A6.43,6.43,0,0,0,1124.58,304.47Z"/>
      <path d="M1153.86,318.74a14.46,14.46,0,0,1-5.47-.88,9.63,9.63,0,0,1-3.33-2.14,8.2,8.2,0,0,1-1.72-2.5,6.74,6.74,0,0,1-.56-2,1,1,0,0,1,.32-.84,1.14,1.14,0,0,1,.81-.34h2.35a1.34,1.34,0,0,1,.74.19,1.55,1.55,0,0,1,.49.84,9.26,9.26,0,0,0,.88,1.64,4.8,4.8,0,0,0,1.81,1.57,7.38,7.38,0,0,0,3.44.66,10.62,10.62,0,0,0,3.87-.61,4.44,4.44,0,0,0,2.38-2.16,9.21,9.21,0,0,0,.81-4.24v-3.34a9.15,9.15,0,0,1-3.09,2.53,10.25,10.25,0,0,1-4.8,1,10.58,10.58,0,0,1-4.71-1,8.86,8.86,0,0,1-3.22-2.6,11.56,11.56,0,0,1-1.86-3.75,18.31,18.31,0,0,1-.71-4.42q-.06-1.37,0-2.7a18.31,18.31,0,0,1,.71-4.41,11.71,11.71,0,0,1,1.86-3.78,8.81,8.81,0,0,1,3.22-2.62,10.58,10.58,0,0,1,4.71-1,9.84,9.84,0,0,1,4.88,1.1,10.68,10.68,0,0,1,3.16,2.68v-2.11a1.16,1.16,0,0,1,.32-.83,1.05,1.05,0,0,1,.81-.35h2.25a1.15,1.15,0,0,1,.84.35,1.1,1.1,0,0,1,.34.83v23.79a14.69,14.69,0,0,1-1.1,5.84,8.51,8.51,0,0,1-3.63,4A13.51,13.51,0,0,1,1153.86,318.74Zm-.09-14.52a6.31,6.31,0,0,0,3.94-1.13,6.69,6.69,0,0,0,2.21-2.84,9.61,9.61,0,0,0,.76-3.48c0-.46,0-1,0-1.7s0-1.23,0-1.69a9.52,9.52,0,0,0-.76-3.48,6.71,6.71,0,0,0-2.21-2.85,7.47,7.47,0,0,0-7.87,0,6.1,6.1,0,0,0-2.11,2.89,13.35,13.35,0,0,0-.73,3.85c0,.85,0,1.72,0,2.6a13.22,13.22,0,0,0,.73,3.85,6.13,6.13,0,0,0,2.11,2.9A6.43,6.43,0,0,0,1153.77,304.22Z"/>
      <path d="M1182.85,308.44a10.64,10.64,0,0,1-8-3.11,12.86,12.86,0,0,1-3.29-8.52c0-.42,0-1,0-1.64s0-1.22,0-1.64a14.34,14.34,0,0,1,1.62-6.11,10.15,10.15,0,0,1,3.9-4.05,12.94,12.94,0,0,1,12.07.15A10.07,10.07,0,0,1,1193,288a16.23,16.23,0,0,1,1.32,6.77v.84a1,1,0,0,1-.32.83,1.13,1.13,0,0,1-.81.3h-17v.44a10.21,10.21,0,0,0,.89,3.75,7,7,0,0,0,2.25,2.82,5.8,5.8,0,0,0,3.53,1.08,7.1,7.1,0,0,0,3-.54,7.65,7.65,0,0,0,1.91-1.2,7,7,0,0,0,1-1,2.52,2.52,0,0,1,.69-.76,1.86,1.86,0,0,1,.78-.12h2.36a1.24,1.24,0,0,1,.81.27.83.83,0,0,1,.27.76,3.89,3.89,0,0,1-.79,1.79,9.27,9.27,0,0,1-2.11,2.08,11.7,11.7,0,0,1-3.33,1.7A14.2,14.2,0,0,1,1182.85,308.44Zm-6.67-15.11h13.44v-.15a9.1,9.1,0,0,0-.81-3.92,6.5,6.5,0,0,0-2.33-2.72,6.42,6.42,0,0,0-3.63-1,6.32,6.32,0,0,0-3.6,1,6.39,6.39,0,0,0-2.28,2.72,9.24,9.24,0,0,0-.79,3.92Z"/>
    </g>
  </g>
</svg>
