<?xml version="1.0" encoding="utf-8"?>
<!-- Generator: Adobe Illustrator 26.3.1, SVG Export Plug-In . SVG Version: 6.00 Build 0)  -->
<svg version="1.1" id="Layer_1" xmlns="http://www.w3.org/2000/svg" xmlns:xlink="http://www.w3.org/1999/xlink" x="0px" y="0px"
	 viewBox="0 0 150.54 31.22" style="enable-background:new 0 0 150.54 31.22;" xml:space="preserve">
<style type="text/css">
	.st0{fill:#FFFFFF;}
</style>
<g>
	<path class="st0" d="M57.95,26.85c-2.37,0-4.24-0.77-5.63-2.32c-1.39-1.55-2.18-3.58-2.38-6.09c-0.02-0.37-0.04-0.85-0.04-1.46
		c0-0.61,0.01-1.1,0.04-1.46c0.12-1.66,0.51-3.12,1.17-4.39c0.66-1.27,1.57-2.26,2.73-2.96C55,7.45,56.37,7.1,57.95,7.1
		c1.71,0,3.16,0.38,4.35,1.13c1.19,0.76,2.12,1.84,2.76,3.25c0.65,1.42,0.97,3.1,0.97,5.05v0.55c0,0.24-0.08,0.44-0.24,0.59
		c-0.16,0.15-0.36,0.22-0.6,0.22H52.17c0,0.2,0,0.32,0,0.37c0.05,1.1,0.3,2.14,0.77,3.13c0.46,0.99,1.12,1.79,1.98,2.41
		c0.85,0.62,1.87,0.93,3.04,0.93c1.05,0,1.92-0.16,2.62-0.48c0.7-0.32,1.25-0.66,1.66-1.04c0.41-0.38,0.68-0.67,0.8-0.86
		c0.22-0.32,0.39-0.51,0.51-0.57c0.12-0.06,0.32-0.09,0.58-0.09h0.59c0.22,0,0.41,0.07,0.57,0.2c0.16,0.13,0.23,0.31,0.2,0.53
		c-0.02,0.34-0.21,0.76-0.57,1.26c-0.35,0.5-0.85,0.99-1.5,1.48c-0.65,0.49-1.43,0.89-2.36,1.21C60.14,26.69,59.1,26.85,57.95,26.85
		z M52.17,15.84h11.63v-0.15c0-1.22-0.23-2.32-0.69-3.29c-0.46-0.98-1.13-1.75-2.01-2.32c-0.88-0.57-1.93-0.86-3.15-0.86
		c-1.22,0-2.26,0.29-3.13,0.86c-0.87,0.57-1.52,1.35-1.98,2.32c-0.45,0.98-0.68,2.07-0.68,3.29V15.84z"/>
	<path class="st0" d="M72.4,26.48c-0.24,0-0.44-0.07-0.58-0.22c-0.15-0.15-0.22-0.34-0.22-0.58V8.27c0-0.24,0.07-0.44,0.22-0.58
		c0.15-0.15,0.34-0.22,0.58-0.22h0.62c0.24,0,0.44,0.07,0.58,0.22c0.15,0.15,0.22,0.34,0.22,0.58v1.72c0.66-0.85,1.46-1.55,2.4-2.08
		c0.94-0.54,2.19-0.8,3.75-0.8c1.66,0,3.04,0.36,4.15,1.08c1.11,0.72,1.94,1.69,2.49,2.93c0.55,1.23,0.82,2.63,0.82,4.19v10.39
		c0,0.24-0.07,0.44-0.22,0.58c-0.15,0.15-0.34,0.22-0.59,0.22h-0.62c-0.24,0-0.44-0.07-0.59-0.22s-0.22-0.34-0.22-0.58V15.47
		c0-1.95-0.48-3.48-1.43-4.59c-0.95-1.11-2.34-1.66-4.17-1.66c-1.73,0-3.13,0.55-4.19,1.66c-1.06,1.11-1.59,2.64-1.59,4.59v10.21
		c0,0.24-0.07,0.44-0.22,0.58c-0.15,0.15-0.34,0.22-0.58,0.22H72.4z"/>
	<path class="st0" d="M99.95,26.85c-1.27,0-2.36-0.17-3.27-0.51c-0.91-0.34-1.66-0.75-2.25-1.23c-0.59-0.48-1.02-0.94-1.3-1.41
		c-0.28-0.46-0.43-0.82-0.46-1.06c-0.02-0.27,0.06-0.47,0.26-0.6s0.38-0.2,0.55-0.2h0.55c0.15,0,0.27,0.02,0.38,0.07
		s0.25,0.18,0.42,0.4c0.32,0.42,0.68,0.81,1.1,1.19c0.42,0.38,0.95,0.68,1.59,0.9c0.65,0.22,1.46,0.33,2.43,0.33
		c1.46,0,2.67-0.28,3.62-0.84c0.95-0.56,1.43-1.39,1.43-2.49c0-0.68-0.19-1.23-0.57-1.65c-0.38-0.42-1.02-0.78-1.92-1.1
		c-0.9-0.32-2.12-0.65-3.66-0.99c-1.54-0.37-2.71-0.8-3.53-1.32c-0.82-0.51-1.37-1.1-1.66-1.77s-0.44-1.4-0.44-2.18
		c0-0.85,0.24-1.69,0.73-2.51c0.49-0.82,1.21-1.49,2.18-2.01c0.96-0.52,2.18-0.79,3.64-0.79c1.19,0,2.21,0.16,3.05,0.47
		c0.84,0.32,1.53,0.7,2.07,1.15c0.54,0.45,0.93,0.9,1.19,1.34c0.26,0.44,0.4,0.79,0.42,1.06c0.02,0.24-0.05,0.44-0.22,0.58
		c-0.17,0.15-0.37,0.22-0.58,0.22h-0.55c-0.2,0-0.35-0.04-0.48-0.13c-0.12-0.08-0.23-0.2-0.33-0.35c-0.24-0.39-0.54-0.76-0.88-1.1
		c-0.34-0.34-0.8-0.62-1.37-0.82c-0.57-0.21-1.35-0.31-2.32-0.31c-1.46,0-2.55,0.3-3.26,0.9c-0.71,0.6-1.06,1.36-1.06,2.29
		c0,0.54,0.15,1.01,0.44,1.41s0.84,0.77,1.65,1.1s1.97,0.68,3.51,1.04c1.56,0.34,2.79,0.76,3.69,1.26c0.9,0.5,1.54,1.09,1.92,1.77
		c0.38,0.68,0.57,1.49,0.57,2.41c0,0.98-0.27,1.88-0.82,2.71c-0.55,0.83-1.37,1.49-2.45,1.99C102.87,26.6,101.53,26.85,99.95,26.85z
		"/>
	<path class="st0" d="M113.04,3.55c-0.24,0-0.44-0.07-0.58-0.22c-0.15-0.15-0.22-0.34-0.22-0.58V1.35c0-0.24,0.07-0.45,0.22-0.6
		s0.34-0.24,0.58-0.24h1.39c0.24,0,0.44,0.08,0.6,0.24c0.16,0.16,0.24,0.36,0.24,0.6v1.39c0,0.24-0.08,0.44-0.24,0.58
		c-0.16,0.15-0.36,0.22-0.6,0.22H113.04z M113.44,26.48c-0.24,0-0.44-0.07-0.58-0.22s-0.22-0.34-0.22-0.58V8.27
		c0-0.24,0.07-0.44,0.22-0.58s0.34-0.22,0.58-0.22h0.62c0.24,0,0.44,0.07,0.58,0.22c0.15,0.15,0.22,0.34,0.22,0.58v17.41
		c0,0.24-0.07,0.44-0.22,0.58c-0.15,0.15-0.34,0.22-0.58,0.22H113.44z"/>
	<path class="st0" d="M127.93,26.48c-1.27,0-2.27-0.27-3-0.8c-0.73-0.54-1.24-1.27-1.54-2.2c-0.29-0.93-0.44-1.96-0.44-3.11V9.58
		h-2.85c-0.24,0-0.44-0.07-0.58-0.22c-0.15-0.15-0.22-0.34-0.22-0.58V8.27c0-0.24,0.07-0.44,0.22-0.58
		c0.15-0.15,0.34-0.22,0.58-0.22h2.85V1.32c0-0.24,0.07-0.44,0.22-0.58c0.15-0.15,0.34-0.22,0.59-0.22h0.62
		c0.24,0,0.44,0.07,0.59,0.22s0.22,0.34,0.22,0.58v6.15h4.54c0.24,0,0.44,0.07,0.59,0.22c0.15,0.15,0.22,0.34,0.22,0.58v0.51
		c0,0.24-0.07,0.44-0.22,0.58c-0.15,0.15-0.34,0.22-0.59,0.22h-4.54v10.64c0,1.29,0.21,2.3,0.64,3.04s1.19,1.1,2.29,1.1h1.98
		c0.24,0,0.44,0.07,0.58,0.22s0.22,0.34,0.22,0.59v0.51c0,0.24-0.07,0.44-0.22,0.58s-0.34,0.22-0.58,0.22H127.93z"/>
	<path class="st0" d="M142.45,26.85c-2.37,0-4.24-0.77-5.63-2.32c-1.39-1.55-2.18-3.58-2.38-6.09c-0.02-0.37-0.04-0.85-0.04-1.46
		c0-0.61,0.01-1.1,0.04-1.46c0.12-1.66,0.51-3.12,1.17-4.39c0.66-1.27,1.57-2.26,2.73-2.96c1.16-0.71,2.53-1.06,4.12-1.06
		c1.71,0,3.16,0.38,4.35,1.13c1.19,0.76,2.12,1.84,2.76,3.25c0.65,1.42,0.97,3.1,0.97,5.05v0.55c0,0.24-0.08,0.44-0.24,0.59
		s-0.36,0.22-0.6,0.22h-13.02c0,0.2,0,0.32,0,0.37c0.05,1.1,0.3,2.14,0.77,3.13c0.46,0.99,1.12,1.79,1.98,2.41
		c0.85,0.62,1.87,0.93,3.04,0.93c1.05,0,1.92-0.16,2.62-0.48c0.7-0.32,1.25-0.66,1.66-1.04c0.41-0.38,0.68-0.67,0.8-0.86
		c0.22-0.32,0.39-0.51,0.51-0.57c0.12-0.06,0.32-0.09,0.58-0.09h0.58c0.22,0,0.41,0.07,0.57,0.2c0.16,0.13,0.22,0.31,0.2,0.53
		c-0.02,0.34-0.21,0.76-0.57,1.26s-0.85,0.99-1.5,1.48c-0.65,0.49-1.43,0.89-2.36,1.21C144.63,26.69,143.6,26.85,142.45,26.85z
		 M136.67,15.84h11.63v-0.15c0-1.22-0.23-2.32-0.7-3.29c-0.46-0.98-1.13-1.75-2.01-2.32c-0.88-0.57-1.93-0.86-3.15-0.86
		c-1.22,0-2.26,0.29-3.13,0.86c-0.87,0.57-1.52,1.35-1.98,2.32s-0.68,2.07-0.68,3.29V15.84z"/>
</g>
<path class="st0" d="M31.12,31.22H3.81c-2.1,0-3.81-1.71-3.81-3.8V3.81C0,1.71,1.71,0,3.81,0h27.32c2.1,0,3.8,1.71,3.8,3.81v23.61
	C34.93,29.51,33.22,31.22,31.12,31.22z M3.81,2C2.81,2,2,2.81,2,3.81v23.61c0,1,0.81,1.8,1.81,1.8h27.32c1,0,1.8-0.81,1.8-1.8V3.81
	c0-1-0.81-1.81-1.8-1.81H3.81z"/>
<path class="st0" d="M18.51,17.27v-1.27v-0.14l0,0v-0.26h0v-0.4v-1.27v-2v-0.96c0-1.22,0.2-2.17,0.6-2.86
	c0.4-0.69,1.12-1.03,2.15-1.03h1.86c0.23,0,0.41-0.07,0.55-0.21c0.14-0.14,0.21-0.32,0.21-0.55V5.86c0-0.23-0.07-0.41-0.21-0.55
	c-0.14-0.14-0.32-0.21-0.55-0.21H11.81c-0.23,0-0.41,0.07-0.55,0.21c-0.14,0.14-0.21,0.32-0.21,0.55v0.48
	c0,0.23,0.07,0.41,0.21,0.55c0.14,0.14,0.32,0.21,0.55,0.21h1.86c1.03,0,1.75,0.34,2.15,1.03c0.4,0.69,0.6,1.64,0.6,2.86v0.96v2
	v1.27v0.14l0,0v0.26h0v0.4v1.27v2v0.96c0,1.22-0.2,2.17-0.6,2.86c-0.4,0.69-1.12,1.03-2.15,1.03H11.8c-0.23,0-0.41,0.07-0.55,0.21
	c-0.14,0.14-0.21,0.32-0.21,0.55v0.48c0,0.23,0.07,0.41,0.21,0.55c0.14,0.14,0.32,0.21,0.55,0.21h11.32c0.23,0,0.41-0.07,0.55-0.21
	c0.14-0.14,0.21-0.32,0.21-0.55v-0.48c0-0.23-0.07-0.41-0.21-0.55c-0.14-0.14-0.32-0.21-0.55-0.21h-1.86
	c-1.03,0-1.75-0.34-2.15-1.03c-0.4-0.69-0.6-1.64-0.6-2.86v-0.96V17.27z"/>
</svg>
